<?xml version="1.0" encoding="utf-8"?>
<svg version="1.1" id="Calque_1" focusable="false" xmlns="http://www.w3.org/2000/svg" xmlns:xlink="http://www.w3.org/1999/xlink"
	 x="0px" y="0px" viewBox="0 0 102.2 66.2" style="enable-background:new 0 0 102.2 66.2;" xml:space="preserve" width="102.2" height="66.2">
<g>
	<path d="M0,0h5.6l9.7,25.8L25,0h5.6v30.7h-3.9V5.2h-0.1L17,30.7h-3.5L4,5.2H3.9v25.5H0V0z"/>
	<path d="M55.7,23.6c-1,4.9-4.5,7.6-9.5,7.6c-7.1,0-10.4-4.9-10.7-11.7C35.6,12.9,39.9,8,46,8c7.9,0,10.3,7.4,10.1,12.7H39.4
		c-0.1,3.9,2.1,7.3,6.9,7.3c3,0,5.1-1.5,5.8-4.3H55.7z M52.2,17.5c-0.2-3.5-2.8-6.3-6.4-6.3c-3.8,0-6.1,2.9-6.4,6.3H52.2z"/>
	<path d="M59.9,8.5h3.4V12h0.1c1.5-2.8,4-4,7.2-4c5.8,0,7.7,3.4,7.7,8.1v14.6h-3.7v-15c0-2.7-1.7-4.5-4.5-4.5c-4.4,0-6.6,3-6.6,7
		v12.6h-3.7V8.5z"/>
	<path d="M102.2,30.7h-3.4v-3.5h-0.1c-1.5,2.8-4,4-7.2,4c-5.8,0-7.7-3.4-7.7-8.1V8.5h3.7v15c0,2.7,1.7,4.5,4.5,4.5
		c4.4,0,6.6-3,6.6-7V8.5h3.7V30.7z"/>
	<path d="M0,35h5.6l9.7,25.8L25,35h5.6v30.7h-3.9V40.2h-0.1L17,65.7h-3.5L4,40.2H3.9v25.5H0V35z"/>
	<path d="M55.7,58.6c-1,4.9-4.5,7.6-9.5,7.6c-7.1,0-10.4-4.9-10.7-11.7C35.6,47.9,39.9,43,46,43c7.9,0,10.3,7.4,10.1,12.7H39.4
		c-0.1,3.9,2.1,7.3,6.9,7.3c3,0,5.1-1.5,5.8-4.3H55.7z M52.2,52.5c-0.2-3.5-2.8-6.3-6.4-6.3c-3.8,0-6.1,2.9-6.4,6.3H52.2z"/>
	<path d="M59.9,43.5h3.4V47h0.1c1.5-2.8,4-4,7.2-4c5.8,0,7.7,3.4,7.7,8.1v14.6h-3.7v-15c0-2.7-1.7-4.5-4.5-4.5c-4.4,0-6.6,3-6.6,7
		v12.6h-3.7V43.5z"/>
	<path d="M102.2,65.7h-3.4v-3.5h-0.1c-1.5,2.8-4,4-7.2,4c-5.8,0-7.7-3.4-7.7-8.1V43.5h3.7v15c0,2.7,1.7,4.5,4.5,4.5
		c4.4,0,6.6-3,6.6-7V43.5h3.7V65.7z"/>
</g>
</svg>
