<?xml version="1.0" encoding="utf-8"?>
<svg version="1.1" id="Calque_1" focusable="false" xmlns="http://www.w3.org/2000/svg" xmlns:xlink="http://www.w3.org/1999/xlink"
	 x="0px" y="0px" viewBox="0 0 167.7 66.2" style="enable-background:new 0 0 167.7 66.2;" xml:space="preserve" width="167.7" height="66.2">
<path d="M15.5,30.7h-4.7L0,0h4.4l8.8,26.6h0.1L22.2,0h4.2L15.5,30.7z"/>
<path d="M27.4,8.5h3.4v4.7h0.1c1.8-3.6,4.2-5.3,8.2-5.2v3.9c-5.9,0-8,3.3-8,9v9.9h-3.7C27.4,30.8,27.4,8.5,27.4,8.5z"/>
<path d="M61.5,30.6c-0.8,0.4-1.7,0.6-2.6,0.6c-1.9,0-3.1-1-3.1-3.4c-2,2.3-4.8,3.5-7.8,3.4c-4,0-7.3-1.8-7.3-6.2
	c0-5,3.7-6.1,7.5-6.8c4-0.8,7.5-0.5,7.5-3.3c0-3.2-2.6-3.7-4.9-3.7c-3.1,0-5.4,0.9-5.6,4.2h-3.6C41.8,9.9,46.1,8,51,8
	c4,0,8.3,0.9,8.3,6.1v11.4c0,1.7,0,2.5,1.2,2.5c0.4,0,0.7-0.1,1.1-0.2v2.8H61.5z M55.6,19.2c-1.4,1-4.2,1.1-6.6,1.5s-4.5,1.3-4.5,4
	c0,2.4,2.1,3.3,4.3,3.3c4.8,0,6.8-3,6.8-5V19.2z"/>
<path d="M68.8,4.5h-3.6V0h3.6V4.5z M65.1,8.5h3.7v22.2h-3.6L65.1,8.5z"/>
<path d="M74.5,8.5h3.4v3.3H78c1.6-2.4,4.3-3.9,7.2-3.8c2.7,0,5.2,1.1,6.1,3.8c1.5-2.4,4.2-3.8,7-3.8c4.4,0,7.4,1.8,7.4,6.4v16.3H102
	V16.1c0-2.8-0.7-4.9-4.3-4.9s-5.9,2.2-5.9,5.7v13.9h-3.6V16.1c0-2.9-0.9-4.9-4.2-4.9c-3.2,0-5.8,2.5-5.9,5.7v13.9h-3.6V8.5z"/>
<path d="M130.1,23.7c-1,4.9-4.5,7.6-9.5,7.6c-7.1,0-10.4-4.9-10.7-11.7c0-6.7,4.4-11.6,10.4-11.6c7.9,0,10.3,7.3,10.1,12.7h-16.6
	c-0.1,3.9,2.1,7.3,6.9,7.3c3,0,5.1-1.5,5.8-4.3H130.1z M126.6,17.5c-0.1-3.5-2.9-6.3-6.4-6.3c-3.8,0-6.1,2.9-6.4,6.3H126.6z"/>
<path d="M134.2,8.5h3.4V12h0.1c1.4-2.6,4.3-4.2,7.2-4c5.8,0,7.6,3.3,7.6,8.1v14.6H149v-15c0.2-2.3-1.6-4.3-3.9-4.5
	c-0.2,0-0.4,0-0.6,0c-4.4,0-6.6,3-6.6,7v12.5h-3.6L134.2,8.5z"/>
<path d="M163.2,8.5h4.4v3.2h-4.4v13.8c0,1.7,0.5,2,2.8,2h1.7v3.2h-2.8c-3.8,0-5.3-0.8-5.3-4.9V11.7h-3.8V8.5h3.8V1.8h3.7L163.2,8.5
	L163.2,8.5z"/>
<path d="M15.5,65.7h-4.7L0,35h4.4l8.8,26.6h0.1L22.2,35h4.2L15.5,65.7z"/>
<path d="M27.4,43.5h3.4v4.7h0.1c1.8-3.6,4.2-5.3,8.2-5.2v3.9c-5.9,0-8,3.3-8,9v9.9h-3.7C27.4,65.8,27.4,43.5,27.4,43.5z"/>
<path d="M61.5,65.6c-0.8,0.4-1.7,0.6-2.6,0.6c-1.9,0-3.1-1-3.1-3.4c-2,2.3-4.8,3.5-7.8,3.4c-4,0-7.3-1.8-7.3-6.2
	c0-5,3.7-6.1,7.5-6.8c4-0.8,7.5-0.5,7.5-3.3c0-3.2-2.6-3.7-4.9-3.7c-3.1,0-5.4,1-5.6,4.2h-3.6c0.2-5.5,4.5-7.4,9.4-7.4
	c4,0,8.3,0.9,8.3,6.1v11.4c0,1.7,0,2.5,1.2,2.5c0.4,0,0.8-0.1,1.1-0.2L61.5,65.6z M55.6,54.2c-1.4,1-4.2,1.1-6.6,1.5s-4.5,1.3-4.5,4
	c0,2.4,2.1,3.3,4.3,3.3c4.8,0,6.8-3,6.8-5V54.2z"/>
<path d="M68.8,39.5h-3.6V35h3.6V39.5z M65.1,43.5h3.7v22.2h-3.6L65.1,43.5z"/>
<path d="M74.5,43.5h3.4v3.3H78c1.6-2.4,4.3-3.9,7.2-3.8c2.7,0,5.2,1.1,6.1,3.8c1.5-2.4,4.2-3.8,7-3.8c4.4,0,7.4,1.8,7.4,6.4v16.3
	H102V51.1c0-2.8-0.7-5-4.3-5s-5.8,2.2-5.8,5.7v13.9h-3.7V51.1c0-2.9-0.9-5-4.2-5c-3.2,0-5.8,2.5-5.9,5.7v13.9h-3.7L74.5,43.5
	L74.5,43.5z"/>
<path d="M130.1,58.6c-1,4.9-4.5,7.6-9.5,7.6c-7.1,0-10.4-4.9-10.7-11.7c0-6.7,4.4-11.6,10.4-11.6c7.9,0,10.3,7.3,10.1,12.7h-16.6
	c-0.1,3.9,2.1,7.3,6.9,7.3c3,0,5.1-1.5,5.8-4.3C126.5,58.6,130.1,58.6,130.1,58.6z M126.6,52.4c-0.1-3.5-2.9-6.3-6.4-6.3
	c-3.8,0-6.1,2.9-6.4,6.3H126.6z"/>
<path d="M134.2,43.5h3.4V47h0.1c1.4-2.6,4.3-4.2,7.2-4c5.8,0,7.6,3.3,7.6,8.1v14.6H149v-15c0.2-2.3-1.6-4.3-3.9-4.5
	c-0.2,0-0.4,0-0.6,0c-4.4,0-6.6,3-6.6,7v12.6h-3.6L134.2,43.5z"/>
<path d="M163.2,43.5h4.4v3.2h-4.4v13.8c0,1.7,0.5,2,2.8,2h1.7v3.2h-2.8c-3.8,0-5.3-0.8-5.3-4.9V46.7h-3.8v-3.2h3.8v-6.6h3.7
	L163.2,43.5L163.2,43.5z"/>
</svg>
